HIERARCHY
ROOT Hips
{
    OFFSET 0.000000 0.000000 0.000000
    CHANNELS 6 Xposition Yposition Zposition Zrotation Xrotation Yrotation
    JOINT Spine
    {
        OFFSET -0.000000 7.761268 0.000000
        CHANNELS 3 Zrotation Xrotation Yrotation
        JOINT Spine1
        {
            OFFSET -0.000000 24.785763 0.000000
            CHANNELS 3 Zrotation Xrotation Yrotation
            JOINT Neck
            {
                OFFSET -0.000000 24.683973 2.243998
                CHANNELS 3 Zrotation Xrotation Yrotation
                JOINT Head
                {
                    OFFSET -0.000000 13.250945 -1.892992
                    CHANNELS 3 Zrotation Xrotation Yrotation
                    End Site
                    {
                        OFFSET -0.000000 23.662401 0.000000
                    }
                }
            }
            JOINT LeftShoulder
            {
                OFFSET 3.794134 23.444212 -0.177979
                CHANNELS 3 Zrotation Xrotation Yrotation
                JOINT LeftArm
                {
                    OFFSET 9.211075 0.000000 0.000000
                    CHANNELS 3 Zrotation Xrotation Yrotation
                    JOINT LeftForeArm
                    {
                        OFFSET 34.352840 0.000000 0.000000
                        CHANNELS 3 Zrotation Xrotation Yrotation
                        JOINT LeftHand
                        {
                            OFFSET 25.460636 0.000000 0.000000
                            CHANNELS 3 Zrotation Xrotation Yrotation
                            End Site
                            {
                                OFFSET 14.197442 0.000000 0.000000
                            }
                        }
                    }
                }
            }
            JOINT RightShoulder
            {
                OFFSET -3.767389 23.444212 -0.177979
                CHANNELS 3 Zrotation Xrotation Yrotation
                JOINT RightArm
                {
                    OFFSET -9.211075 0.000000 0.000000
                    CHANNELS 3 Zrotation Xrotation Yrotation
                    JOINT RightForeArm
                    {
                        OFFSET -34.352840 0.000000 0.000000
                        CHANNELS 3 Zrotation Xrotation Yrotation
                        JOINT RightHand
                        {
                            OFFSET -25.460636 0.000000 0.000000
                            CHANNELS 3 Zrotation Xrotation Yrotation
                            End Site
                            {
                                OFFSET -14.197442 0.000000 0.000000
                            }
                        }
                    }
                }
            }
        }
    }
    JOINT LeftUpLeg
    {
        OFFSET 9.464960 0.000000 0.000000
        CHANNELS 3 Zrotation Xrotation Yrotation
        JOINT LeftLeg
        {
            OFFSET -0.000000 -36.073700 0.000000
            CHANNELS 3 Zrotation Xrotation Yrotation
            JOINT LeftFoot
            {
                OFFSET -0.000000 -40.808823 0.000000
                CHANNELS 3 Zrotation Xrotation Yrotation
                JOINT LeftToeBase
                {
                    OFFSET -0.000000 -6.152224 14.197442
                    CHANNELS 3 Zrotation Xrotation Yrotation
                    End Site
                    {
                        OFFSET -0.000000 0.000000 3.785984
                    }
                }
            }
        }
    }
    JOINT RightUpLeg
    {
        OFFSET -9.464960 0.000000 0.000000
        CHANNELS 3 Zrotation Xrotation Yrotation
        JOINT RightLeg
        {
            OFFSET -0.000000 -36.073700 0.000000
            CHANNELS 3 Zrotation Xrotation Yrotation
            JOINT RightFoot
            {
                OFFSET -0.000000 -40.808823 0.000000
                CHANNELS 3 Zrotation Xrotation Yrotation
                JOINT RightToeBase
                {
                    OFFSET -0.000000 -6.152224 14.197442
                    CHANNELS 3 Zrotation Xrotation Yrotation
                    End Site
                    {
                        OFFSET -0.000000 0.000000 3.785984
                    }
                }
            }
        }
    }
}
MOTION
Frames:    12
Frame Time:    0.004000
-22.845350    81.045113    -89.931641    2.947493    8.835024    5.917465    1.544475    5.212493    0.812369    -4.103197    -0.839794    0.852676    1.020543    6.675448    -2.781158    -1.419888    4.598201    -3.132288    0.600005    12.304450    -3.472232    -34.248932    27.436361    -5.004822    8.116453    -18.169130    -91.753090    22.644468    -7.115657    14.648074    -1.031361    16.066341    -4.558670    43.329716    45.907810    1.255009    -7.238738    -25.187790    102.489746    -20.253271    -13.297074    -19.814758    -1.266837    -14.232705    8.864231    -3.981281    32.635811    -7.115290    -3.868895    -6.450975    5.341799    0.000000    0.000000    0.000000    -9.288692    -10.164085    -8.670389    10.482099    27.073812    4.760356    -12.151256    -12.560284    -20.582720    0.000000    0.000000    0.000000    
-22.789907    81.848976    -89.273605    2.989864    9.022779    5.952109    1.625198    4.416707    0.838439    -4.369748    -0.946511    0.865109    1.076484    7.125852    -2.732643    -1.414604    5.304198    -3.073255    0.844327    12.125969    -3.279049    -34.194805    27.371960    -4.544687    8.067645    -17.959066    -92.739708    22.299042    -6.828970    14.744336    -1.211255    16.031637    -4.635237    43.929714    46.423702    0.344018    -6.940353    -24.949226    103.353775    -20.332272    -13.195121    -20.175117    -1.121813    -12.811690    9.325516    -4.221616    30.144964    -7.152252    -4.135874    -3.531678    4.734019    0.000000    0.000000    0.000000    -9.368441    -8.779148    -9.188845    10.176844    24.624409    4.772095    -9.473405    -9.804445    -18.714191    0.000000    0.000000    0.000000    
-22.735668    82.704124    -88.589867    3.095450    9.305093    5.909100    1.599523    3.458402    0.903527    -4.603070    -0.960641    0.913237    1.162245    7.585279    -2.682678    -1.501638    5.955506    -3.023694    1.103341    11.997420    -3.057955    -34.111847    27.411497    -4.148749    8.220192    -18.001856    -93.616394    21.698830    -6.664573    14.720271    -1.446344    16.056990    -4.742341    44.454514    46.772381    -0.389491    -6.592656    -24.571589    104.186127    -20.106279    -13.110313    -20.340521    -1.050528    -11.395146    9.899718    -4.458600    27.476320    -6.949525    -5.405698    -0.835239    4.554959    0.000000    0.000000    0.000000    -9.466125    -7.423858    -9.609293    9.979237    22.007378    4.442299    -7.348593    -6.555545    -17.012136    0.000000    0.000000    0.000000    
-22.675129    83.581139    -87.886192    3.175275    9.403590    5.916157    1.555209    2.720017    0.954038    -4.638849    -1.031162    0.949264    0.939368    8.069045    -2.645530    -1.308946    6.667261    -2.937331    1.209768    11.893038    -2.896229    -34.020233    27.518650    -3.711564    8.427387    -18.076355    -94.402473    21.372524    -6.440725    14.714853    -1.787921    16.139090    -4.915637    44.900826    47.100380    -1.031408    -6.223263    -24.143875    104.948067    -19.944534    -12.962648    -20.775995    -1.002455    -9.840458    10.367443    -4.629729    24.826538    -6.668574    -6.599769    2.477904    4.099981    0.000000    0.000000    0.000000    -9.482780    -5.893291    -10.090126    9.628867    19.340151    4.189178    -4.758292    -2.871836    -15.271867    0.000000    0.000000    0.000000    
-22.616282    84.481140    -87.182724    3.263220    9.471352    5.930342    1.539400    1.987384    1.007088    -4.794757    -1.011348    0.991490    0.956960    8.440486    -2.658888    -1.342031    7.468653    -2.942883    1.363982    11.684718    -2.681568    -33.855236    27.629082    -3.357116    8.510703    -18.057577    -95.236458    20.935345    -6.252879    14.715740    -1.962000    16.068821    -5.070467    45.434418    47.555733    -1.877347    -6.039277    -23.963196    105.503288    -19.159283    -13.094197    -20.645069    -0.986750    -8.219063    10.614564    -4.860887    22.008003    -5.991268    -7.416907    6.100010    3.421899    0.000000    0.000000    0.000000    -9.469357    -4.382567    -10.419184    9.307436    16.816553    4.201765    -2.243328    0.982575    -14.323548    0.000000    0.000000    0.000000    
-22.574974    85.373253    -86.494171    3.345796    9.527198    5.959720    1.485528    1.300318    1.045140    -4.880292    -1.034603    1.017957    0.941075    8.931361    -2.653542    -1.353773    8.117870    -2.925219    1.531659    11.681156    -2.494485    -33.702465    27.739033    -3.096850    8.774893    -18.316647    -95.860519    20.111322    -6.277078    14.484956    -2.206554    15.767339    -5.099120    46.270584    48.029732    -3.078465    -5.790269    -23.638493    106.070084    -18.797302    -13.021218    -20.871883    -1.004480    -6.767750    11.032149    -4.894842    19.501389    -5.207757    -8.158812    9.966665    2.642199    0.000000    0.000000    0.000000    -9.403769    -2.929792    -10.651457    8.926535    14.306313    4.000184    -0.370339    5.042329    -13.258323    0.000000    0.000000    0.000000    
-22.538813    86.302879    -85.798042    3.407618    9.619374    6.013109    1.417591    0.578892    1.075107    -4.942105    -1.094772    1.035022    0.917674    9.437559    -2.680479    -1.321046    8.863391    -2.936498    1.656774    11.576164    -2.427209    -33.597847    27.853615    -2.647990    9.056338    -18.552279    -96.513885    19.126822    -6.251692    14.308626    -2.379111    15.602374    -5.155915    47.000248    48.814735    -4.247598    -5.762697    -23.809679    106.463753    -18.093004    -13.300058    -20.965729    -1.073538    -5.373595    11.472707    -4.752163    16.921328    -4.317812    -9.002332    14.065395    1.664705    0.000000    0.000000    0.000000    -9.251514    -1.542086    -10.829250    8.447046    11.702984    3.491706    1.879644    9.504647    -12.370219    0.000000    0.000000    0.000000    
-22.509119    87.231598    -85.134659    3.469849    9.752190    6.080644    1.353421    -0.108632    1.106375    -5.037351    -1.249839    1.050124    0.913822    10.101274    -2.729023    -1.266394    9.426297    -2.971443    1.758282    11.177783    -2.509442    -33.611759    28.091967    -1.883017    9.273229    -18.709894    -97.168129    18.069649    -6.203880    14.202169    -2.455922    15.595315    -5.236391    47.549526    49.150177    -5.188805    -5.608845    -23.637421    106.829002    -17.285755    -13.462111    -20.681807    -1.197765    -4.157482    11.898145    -4.483510    14.475220    -3.456053    -10.146736    18.383764    0.983283    0.000000    0.000000    0.000000    -9.047090    -0.313326    -10.921356    7.836543    9.196575    3.114938    3.533351    14.053857    -11.728846    0.000000    0.000000    0.000000    
-22.488707    88.149956    -84.496132    3.523870    9.919356    6.179111    1.262985    -0.813072    1.094900    -5.119322    -1.411906    1.022846    0.985381    10.772292    -2.776382    -1.297215    10.019516    -3.013941    1.912438    11.189610    -2.460962    -33.501186    28.174229    -1.526763    9.588764    -19.032818    -97.703957    17.010248    -6.235251    14.053697    -2.490963    15.616444    -5.267276    47.921902    49.390915    -5.974920    -5.542549    -23.450998    107.105347    -16.473719    -13.436789    -20.856594    -1.370470    -3.098190    12.324572    -4.089878    12.093721    -2.131953    -11.003902    22.926750    0.054982    0.000000    0.000000    0.000000    -8.773067    0.806174    -10.919856    7.125630    6.764625    2.940381    5.085621    18.532614    -11.354412    0.000000    0.000000    0.000000    
-22.474089    89.056435    -83.895851    3.620709    10.193779    6.328204    1.085085    -1.583616    1.042081    -5.151297    -1.579164    0.956064    0.999231    11.417733    -2.796351    -1.278056    10.557319    -3.022411    2.028191    11.221252    -2.407025    -33.385056    28.272511    -1.249875    9.867558    -19.361712    -98.178772    16.045567    -6.280266    14.080702    -2.553957    15.598063    -5.227259    48.330887    49.421761    -6.782165    -5.381956    -23.051865    107.338722    -15.750063    -13.329561    -20.851826    -1.656768    -2.384812    12.622640    -3.601054    10.117235    -0.628670    -11.056263    27.518740    -0.778769    0.000000    0.000000    0.000000    -8.512806    1.678094    -10.972353    6.309564    4.502545    2.519238    6.682437    22.878077    -11.122425    0.000000    0.000000    0.000000    
-22.480425    89.987953    -83.269897    3.614688    10.246190    6.505079    0.960619    -2.203658    0.991856    -5.043164    -1.595848    0.903042    0.970379    12.095844    -2.882745    -1.311646    10.926975    -3.102428    2.060037    11.105886    -2.444221    -33.313965    28.483421    -0.883695    10.249105    -19.787735    -98.523224    15.259316    -6.340785    13.851156    -2.644692    15.501224    -5.236414    48.783375    49.719646    -7.662374    -5.275190    -22.980515    107.574211    -14.951576    -13.526254    -20.740795    -1.874229    -1.525829    12.997907    -2.803265    8.447390    0.086288    -11.322896    32.084152    -0.964311    0.000000    0.000000    0.000000    -8.010904    2.698908    -10.867407    5.312359    2.296197    2.137271    7.798017    27.289345    -11.045462    0.000000    0.000000    0.000000    
-22.486366    90.922852    -82.669701    3.651786    10.313977    6.696624    0.767506    -2.830369    0.910218    -4.895370    -1.547973    0.825129    0.854567    12.498296    -2.879391    -1.254253    11.576527    -3.081335    2.058536    11.085410    -2.405792    -33.150562    28.582344    -0.765441    10.573563    -20.180220    -98.785400    14.524775    -6.438955    13.600635    -2.785083    15.332843    -5.180535    49.237411    49.921192    -8.519255    -5.209132    -22.896400    107.722244    -13.885979    -13.733416    -20.463938    -2.188456    -0.939266    13.373312    -1.879792    7.290738    1.373042    -10.091533    36.202705    -1.919129    0.000000    0.000000    0.000000    -7.556127    3.528648    -10.671515    4.284799    0.390957    1.364622    8.127460    31.639217    -10.439396    0.000000    0.000000    0.000000    
